<svg
            className="google-icon"
            width="20"
            height="20"
            viewBox="0 0 533.5 544.3"
            xmlns="http://www.w3.org/2000/svg"
          >
            <path
              fill="#4285F4"
              d="M533.5 278.4c0-18.1-1.6-36.2-4.8-53.8H272v101.9h146.9
                 c-6.3 34.4-25.1 63.6-53.4 83.3v69.3h86.2
                 c50.5-46.5 81.8-115.1 81.8-200.7z"
            />
            <path
              fill="#34A853"
              d="M272 544.3c72.6 0 133.6-24.1 178.2-65.2l-86.2-69.3
                 c-24 16.1-54.8 25.6-92 25.6
                 -70.8 0-130.8-47.9-152.3-112.3H30.1v70.6
                 C74.6 485.8 167.6 544.3 272 544.3z"
            />
            <path
              fill="#FBBC05"
              d="M119.7 323.1c-10.6-31.9-10.6-66.4 0-98.3V154.2H30.1
                 c-41.7 83.5-41.7 182.6 0 266.1l89.6-97.2z"
            />
            <path
              fill="#EA4335"
              d="M272 107.7c39.5 0 75 13.6 103 40.3l77.4-77.4
                 C400.9 24.1 339.9 0 272 0
                 167.6 0 74.6 58.5 30.1 154.2l89.6 70.6
                 C141.2 155.6 201.2 107.7 272 107.7z"
            />
          </svg>
